cyclingleg_states
version=1
nRows=4
nColumns=49
inDegrees=yes

# SIMM Motion File Header:
name cyclingleg_states
datacolumns 49
datarows 4
otherdata 1
range 0.00000000 0.00164333
endheader
time	bb/crank_angle/value	bb/crank_angle/speed	spindle/pedal_angle_r/value	spindle/pedal_angle_r/speed	ground_pelvis/pelvis_tilt/value	ground_pelvis/pelvis_tilt/speed	ground_pelvis/pelvis_list/value	ground_pelvis/pelvis_list/speed	ground_pelvis/pelvis_rotation/value	ground_pelvis/pelvis_rotation/speed	ground_pelvis/pelvis_tx/value	ground_pelvis/pelvis_tx/speed	ground_pelvis/pelvis_ty/value	ground_pelvis/pelvis_ty/speed	ground_pelvis/pelvis_tz/value	ground_pelvis/pelvis_tz/speed	hip_r/hip_angle_r/value	hip_r/hip_angle_r/speed	hip_r/hip_adduction_r/value	hip_r/hip_adduction_r/speed	hip_r/hip_rotation_r/value	hip_r/hip_rotation_r/speed	knee_r/knee_angle_r/value	knee_r/knee_angle_r/speed	knee_r/tib_tx_r/value	knee_r/tib_tx_r/speed	knee_r/tib_ty_r/value	knee_r/tib_ty_r/speed	tib_pat_r/pat_angle_r/value	tib_pat_r/pat_angle_r/speed	tib_pat_r/pat_tx_r/value	tib_pat_r/pat_tx_r/speed	tib_pat_r/pat_ty_r/value	tib_pat_r/pat_ty_r/speed	ankle_r/ankle_angle_r/value	ankle_r/ankle_angle_r/speed	subtalar_r/subtalar_angle_r/value	subtalar_r/subtalar_angle_r/speed	mtp_r/mtp_angle_r/value	mtp_r/mtp_angle_r/speed	bifemlh_r/activation	bifemlh_r/fiber_length	bifemsh_r/activation	bifemsh_r/fiber_length	glut_max2_r/activation	glut_max2_r/fiber_length	vas_int_r/activation	vas_int_r/fiber_length
      0.00000000	    -14.17733728	      0.00000000	     10.03066994	      0.00000000	      0.00000000	      0.00000000	      0.00000000	      0.00000000	      0.00000000	      0.00000000	     -0.10000000	      0.00000000	     -0.05000000	      0.00000000	     -0.00000000	      0.00000000	     83.29880966	      0.00000000	      4.09273666	      0.00000000	     -3.66593111	      0.00000000	   -114.03476276	      0.00000000	     -0.00165556	      0.00000000	     -0.49412489	      0.00000000	     17.64942984	      0.00000000	      0.02240954	      0.00000000	     -0.02412823	      0.00000000	     27.26890626	      0.00000000	      0.00000000	      0.00000000	     -0.00000000	      0.00000000	      0.05000000	      0.13849957	      0.05000000	      0.14500930	      0.05000000	      0.15521998	      0.05000000	      0.15991187
      0.00049444	    -14.17756407	     -0.92171764	     10.03095654	      1.16482210	      0.00000000	      0.00000000	      0.00000000	     -0.00000000	      0.00000000	      0.00000000	     -0.10000000	     -0.00000000	     -0.05000000	      0.00000000	      0.00000000	      0.00000000	     83.29881594	      0.02554146	      4.09273742	      0.00307607	     -3.66592348	      0.03104205	   -114.03468702	      0.30783856	     -0.00165553	      0.00010043	     -0.49412486	      0.00010059	     17.64942975	     -0.00036146	      0.02240958	      0.00014877	     -0.02412823	      0.00002388	     27.26888337	     -0.09301940	     -0.00000000	     -0.00000000	     -0.00000000	     -0.00000000	      0.04978767	      0.13849962	      0.04978759	      0.14500937	      0.04978759	      0.15522004	      0.12176820	      0.15988559
      0.00098889	    -14.17825639	     -1.88879904	     10.03183147	      2.38697027	      0.00000000	      0.00000000	      0.00000000	      0.00000000	      0.00000000	      0.00000000	     -0.10000000	     -0.00000000	     -0.05000000	      0.00000000	      0.00000000	     -0.00000000	     83.29883513	      0.05232888	      4.09273973	      0.00630362	     -3.66590016	      0.06361265	   -114.03445579	      0.63083776	     -0.00165546	      0.00020580	     -0.49412479	      0.00020613	     17.64942948	     -0.00074078	      0.02240969	      0.00030487	     -0.02412821	      0.00004894	     27.26881350	     -0.19061818	     -0.00000000	     -0.00000000	     -0.00000000	     -0.00000000	      0.04957713	      0.13849975	      0.04957679	      0.14500957	      0.04957679	      0.15522021	      0.17955707	      0.15982783
      0.00164333	    -14.17994028	     -3.28139981	     10.03395948	      4.14685953	      0.00000000	      0.00000000	      0.00000000	      0.00000000	      0.00000000	      0.00000000	     -0.10000000	     -0.00000000	     -0.05000000	      0.00000000	      0.00000000	      0.00000000	     83.29888177	      0.09086376	      4.09274535	      0.01095163	     -3.66584345	      0.11051711	   -114.03389338	      1.09599264	     -0.00165528	      0.00035754	     -0.49412460	      0.00035812	     17.64942882	     -0.00128724	      0.02240996	      0.00052966	     -0.02412816	      0.00008503	     27.26864356	     -0.33116531	     -0.00000000	     -0.00000000	     -0.00000000	     -0.00000000	      0.04930119	      0.13850007	      0.04930025	      0.14501003	      0.04930025	      0.15522059	      0.24269382	      0.15973183
